<?xml version="1.0" encoding="utf-8"?>
<!-- Generator: Adobe Illustrator 24.0.1, SVG Export Plug-In . SVG Version: 6.00 Build 0)  -->
<svg version="1.1" id="Layer_1" xmlns="http://www.w3.org/2000/svg" xmlns:xlink="http://www.w3.org/1999/xlink" x="0px" y="0px"
	 viewBox="0 0 500 500" style="enable-background:new 0 0 500 500;" xml:space="preserve">
<style type="text/css">
	.st0{fill:#016C6F;}
	.st1{font-family:'Nexa-Heavy';}
	.st2{font-size:49.3471px;}
</style>
<g>
	<g>
		<g>
			<g>
				<path class="st0" d="M294.89,183.61c-5.75,10.48-7.9,22.39-6.56,34.79c-1.13-2.67-2.24-5.34-3.36-8.01
					c-1.79-4.25-3.66-8.39-9.28-8.4c-5.71-0.01-8.4,3.8-10.16,8.42c-6.47,17.01-12.81,34.08-19.2,51.13
					c-2.23,5.94-5.06,11.55-9.25,16.36c-11.45,13.13-27.34,12.32-37.75-1.71c-5.61-7.56-8.26-16.42-11.6-24.99
					c-4.81-12.36-9.43-24.79-14.25-37.14c-0.97-2.49-2.16-5-3.77-7.1c-4.75-6.25-10.71-6.45-15.82-0.43c-2,2.35-3.42,5.26-4.81,8.06
					c-8.1,16.31-16.2,32.62-24.11,49.02c-9.9,20.5-29.11,25.96-48.62,22.98c-16.85-2.56-30.76-20.11-32.15-39.54
					c-0.62-8.75,2.21-16.85,6.69-24.35c2.39-4.01,5.16-3.77,8.15-0.71c5.37,5.49,6.8,12.55,7.53,19.76
					c1.21,12.08,4.77,17.34,13.96,19.7c9.78,2.53,19.37-0.96,25.1-9.95c6.52-10.25,10.98-21.63,16.33-32.52
					c4.66-9.47,8.55-19.36,14.32-28.25c8.49-13.11,21.86-19.07,34.42-15.43c10.89,3.14,17.01,11.36,21.06,21.28
					c5.53,13.52,10.74,27.18,16.09,40.78c1.73,4.4,3.43,8.84,6.38,12.59c3.41,4.34,6.52,4.34,9.75-0.11
					c3.19-4.4,5.17-9.46,7.19-14.47c5.54-13.77,10.88-27.61,16.58-41.31c7.78-18.68,29.97-25.38,45.28-13.92
					c0.93,0.7,1.78,1.45,2.57,2.24C295.35,182.78,295.12,183.19,294.89,183.61z"/>
			</g>
			<g>
				<path class="st0" d="M349.68,287.12c-12.6-0.23-29.84-11.44-42.62-30.83v-0.01l0.04-6.22c0.1-15.57,1.69-25.65,5.24-32.83
					l0.33,0.82c4.03,9.85,9.21,18.98,15.91,27.27c20.63,25.56,52.46,21.79,66.15-8.08c3.97-8.66,9.47-15.1,18.92-17.76
					c5.36-1.5,7.83-0.37,8.05,5.8C422.88,259.18,396.2,287.22,349.68,287.12z"/>
			</g>
			<g>
				<path class="st0" d="M364.94,185.64c-4.86,4.6-10.88,6.75-17.34,8.03c-5.28,1.05-10.66,1.92-15.69,3.73
					c-10.09,3.64-16.93,8.23-21.39,15.44c-5.07,8.21-7.03,19.8-7.14,37.19c-14.87-24.68-14.54-47.7-5.24-64.64
					c8.42-15.38,24.23-25.77,42.73-27.9c5.89-0.67,11.52-0.14,17.11,1.27c6.87,1.73,16.56,2.54,18,9.38
					C377.31,174.46,370.2,180.66,364.94,185.64z"/>
			</g>
			<g>
				<path class="st0" d="M364.94,185.64c-4.86,4.6-10.88,6.75-17.34,8.03c-5.28,1.05-10.66,1.92-15.69,3.73
					c-10.09,3.64-16.93,8.23-21.39,15.44c-5.07,8.21-7.03,19.8-7.14,37.19c-14.87-24.68-14.54-47.7-5.24-64.64
					c8.42-15.38,24.23-25.77,42.73-27.9c5.89-0.67,11.52-0.14,17.11,1.27c6.87,1.73,16.56,2.54,18,9.38
					C377.31,174.46,370.2,180.66,364.94,185.64z"/>
			</g>
		</g>
	</g>
	<text transform="matrix(1 0 0 1 30.3551 353.0799)" class="st0 st1 st2">JMC Technology</text>
</g>
</svg>
